<svg width="136" height="136" viewBox="0 0 136 136" fill="none" xmlns="http://www.w3.org/2000/svg">
<mask id="mask0" mask-type="alpha" maskUnits="userSpaceOnUse" x="0" y="0" width="136" height="136">
<circle cx="68" cy="68" r="68" fill="#F5F3F0"/>
</mask>
<g mask="url(#mask0)">
<rect x="10.1968" y="64.5513" width="6.85913" height="5.21293" fill="black"/>
<path d="M17.0559 64.6314C17.0559 62.9205 18.4429 61.5335 20.1538 61.5335H34.3409V72.5081H20.1538C18.4429 72.5081 17.0559 71.1211 17.0559 69.4102V64.6314Z" fill="black"/>
<path d="M34.3409 62.9052H40.4256C40.8533 62.9052 41.2001 63.252 41.2001 63.6797V70.3617C41.2001 70.7894 40.8533 71.1362 40.4256 71.1362H34.3409V62.9052Z" fill="#C2C0BE"/>
<path fill-rule="evenodd" clip-rule="evenodd" d="M-16.6909 92.5982C-16.6909 77.7144 -4.65282 65.6486 10.1969 65.6486V68.3986C-3.13755 68.3986 -13.9472 79.2331 -13.9472 92.5982H-16.6909Z" fill="black"/>
<path fill-rule="evenodd" clip-rule="evenodd" d="M113.358 55.9979C113.358 55.5701 113.011 55.2234 112.583 55.2234H37.3102C36.8824 55.2234 36.5357 55.5701 36.5357 55.9979V78.593C36.5357 79.0208 36.8824 79.3675 37.3102 79.3675H112.583C113.011 79.3675 113.358 79.0208 113.358 78.593V55.9979ZM104.029 72.7825C107.06 72.7825 109.517 70.3257 109.517 67.2952C109.517 64.2646 107.06 61.8079 104.029 61.8079C100.999 61.8079 98.5422 64.2646 98.5422 67.2952C98.5422 70.3257 100.999 72.7825 104.029 72.7825Z" fill="black"/>
<rect x="77.9647" y="54.4001" width="9.05405" height="0.823095" fill="#111111"/>
<rect x="46.1385" y="54.4001" width="9.32841" height="0.823095" fill="#111111"/>
<path fill-rule="evenodd" clip-rule="evenodd" d="M104.304 55.2234C97.6367 55.2234 92.2319 60.6282 92.2319 67.2954C92.2319 73.9627 97.6367 79.3675 104.304 79.3675H174.041C174.469 79.3675 174.816 79.0208 174.816 78.593V55.9979C174.816 55.5701 174.469 55.2234 174.041 55.2234H104.304ZM104.029 73.8795C107.818 73.8795 110.889 70.87 110.889 67.1576C110.889 63.4452 107.818 60.4357 104.029 60.4357C100.241 60.4357 97.1703 63.4452 97.1703 67.1576C97.1703 70.87 100.241 73.8795 104.029 73.8795Z" fill="#CCCCCC"/>
<rect x="49.4545" y="61.8184" width="34.2956" height="10.9746" fill="#1D1D1D"/>
<path d="M68.434 64.909H66.1739V67.959H69.2239V65.6988C69.2239 65.2612 68.8717 64.909 68.434 64.909ZM65.4694 64.909H65.0807C64.6431 64.909 64.2909 65.2612 64.2909 65.6988V66.0875H65.4694V64.909ZM64.2909 66.792H65.4694V67.9705H64.2909V66.792ZM68.0578 69.842H68.4465C68.8841 69.842 69.2363 69.4898 69.2363 69.0521V68.6759H68.0578V69.842ZM66.1739 68.6759H67.3524V69.8545H66.1739V68.6759ZM64.2909 68.6759V69.0646C64.2909 69.5022 64.6431 69.8545 65.0807 69.8545H65.4694V68.6759H64.2909Z" fill="#00D9FF"/>
</g>
</svg>
