<svg width="136" height="136" viewBox="0 0 136 136" fill="none" xmlns="http://www.w3.org/2000/svg">
<mask id="mask0" mask-type="alpha" maskUnits="userSpaceOnUse" x="0" y="0" width="136" height="136">
<circle cx="68" cy="68" r="68" fill="#F5F3F0"/>
</mask>
<g mask="url(#mask0)">
<rect x="66.0178" y="135.503" width="6.85913" height="5.21293" transform="rotate(-90 66.0178 135.503)" fill="black"/>
<path d="M66.0979 128.644C64.387 128.644 63 127.257 63 125.546L63 111.359L73.9746 111.359L73.9746 125.546C73.9746 127.257 72.5876 128.644 70.8767 128.644L66.0979 128.644Z" fill="black"/>
<path d="M64.3717 111.359L64.3717 105.274C64.3717 104.847 64.7184 104.5 65.1462 104.5L71.8282 104.5C72.2559 104.5 72.6027 104.847 72.6027 105.274L72.6027 111.359L64.3717 111.359Z" fill="#C2C0BE"/>
<path fill-rule="evenodd" clip-rule="evenodd" d="M94.0647 162.391C79.1809 162.391 67.1151 150.353 67.1151 135.503L69.8651 135.503C69.8651 148.837 80.6996 159.647 94.0647 159.647L94.0647 162.391Z" fill="black"/>
<path d="M85.582 25.0001C89.6347 25.0001 92.9209 28.2855 92.9209 32.3382V71.6442C92.9209 80.7281 90.3917 89.6326 85.6166 97.3602L80.1038 106.282C78.9644 108.56 76.6352 110 74.0873 110H62.8335C60.2857 110 57.9565 108.56 56.8171 106.282L51.3043 97.3602C46.5292 89.6326 44 80.7281 44 71.6442V32.3381C44 28.2854 47.2845 25 51.3372 25C62.0276 25 73.5642 25.0001 85.582 25.0001Z" fill="#333332"/>
<path d="M71.2122 71.7805C71.2122 70.7673 72.0336 69.946 73.0468 69.946H85.277C86.2902 69.946 87.1115 70.7673 87.1115 71.7805V76.0611C87.1115 77.0743 86.2902 77.8956 85.277 77.8956H73.0468C72.0336 77.8956 71.2122 77.0743 71.2122 76.0611V71.7805Z" fill="#555553"/>
<path d="M50.4209 71.7805C50.4209 70.7673 51.2422 69.946 52.2554 69.946H64.4856C65.4988 69.946 66.3202 70.7673 66.3202 71.7805V76.0611C66.3202 77.0743 65.4988 77.8956 64.4856 77.8956H52.2554C51.2422 77.8956 50.4209 77.0743 50.4209 76.0611V71.7805Z" fill="#555553"/>
<path d="M51.9496 69.946H64.1799C65.0242 69.946 65.7086 70.6305 65.7086 71.4748V75.7554C65.7086 76.5997 65.0242 77.2841 64.1799 77.2841H51.9496C51.1053 77.2841 50.4209 76.5997 50.4209 75.7554V71.4748C50.4209 70.6305 51.1053 69.946 51.9496 69.946Z" fill="#333332" stroke="black" stroke-width="0.611511"/>
<path d="M84.9713 69.946H72.741C71.8967 69.946 71.2123 70.6305 71.2123 71.4748V75.7554C71.2123 76.5997 71.8967 77.2841 72.741 77.2841H84.9713C85.8156 77.2841 86.5 76.5997 86.5 75.7554V71.4748C86.5 70.6305 85.8156 69.946 84.9713 69.946Z" fill="#333332" stroke="black" stroke-width="0.611511"/>
<g clip-path="url(#clip0)">
<path d="M55.2744 31.2373C53.9999 31.2373 52.9684 32.275 52.9684 33.5573V34.4268C52.5208 34.5083 52.072 34.617 52.072 34.758V39.2957C52.072 39.2957 52.072 39.4212 52.2121 39.4807C52.7202 39.6877 54.7188 40.3993 55.178 40.5624C55.2371 40.5844 55.2539 40.5844 55.2693 40.5844C55.2912 40.5844 55.3014 40.5844 55.3606 40.5624C55.8198 40.3993 57.8236 39.6877 58.3316 39.4807C58.4615 39.4263 58.4666 39.3008 58.4666 39.3008V34.758C58.4666 34.617 58.0242 34.5031 57.5753 34.4268V33.5573C57.5818 32.275 56.5439 31.2373 55.2744 31.2373ZM55.2744 32.3462C56.0255 32.3462 56.4796 32.8029 56.4796 33.5586V34.3142C55.6371 34.2547 54.9182 34.2547 54.0706 34.3142V33.5586C54.0706 32.8016 54.5246 32.3462 55.2744 32.3462ZM55.2693 35.4269C56.3175 35.4269 57.1972 35.5084 57.1972 35.6547V38.4857C57.1972 38.5297 57.1921 38.5348 57.1535 38.5504C57.1162 38.5672 55.3658 39.2025 55.3658 39.2025C55.3658 39.2025 55.295 39.2245 55.2744 39.2245C55.2526 39.2245 55.1831 39.1973 55.1831 39.1973C55.1831 39.1973 53.4327 38.562 53.3954 38.5452C53.3581 38.5284 53.3517 38.5232 53.3517 38.4805V35.6495C53.3414 35.5033 54.2211 35.4269 55.2693 35.4269Z" fill="#555553"/>
<path d="M61.441 38.5242V35.424H60.315V34.3123H63.8257V35.424H62.7108V38.5242H61.441Z" fill="#555553"/>
<path d="M66.67 38.5242L66.0923 37.1998H65.6326V38.5242H64.3628V34.3123H66.5975C67.5784 34.3123 68.1046 34.9665 68.1046 35.7554C68.1046 36.4826 67.6866 36.8672 67.351 37.0329L68.1095 38.523H66.67V38.5242ZM66.82 35.7554C66.82 35.5267 66.6184 35.4277 66.407 35.4277H65.6326V36.093H66.407C66.6184 36.0881 66.82 35.9892 66.82 35.7554Z" fill="#555553"/>
<path d="M68.7709 38.5242V34.3123H71.946V35.424H70.0357V35.8395H71.8993V36.9513H70.0357V37.4138H71.946V38.5242H68.7709Z" fill="#555553"/>
<path d="M72.6061 38.5292V37.5164L74.2016 35.4289H72.6061V34.3172H75.8734V35.3201L74.2729 37.4187H75.9201V38.5304L72.6061 38.5292V38.5292Z" fill="#555553"/>
<path d="M76.2298 36.4257C76.2298 35.1322 77.2267 34.2443 78.5223 34.2443C79.813 34.2443 80.8148 35.1272 80.8148 36.4257C80.8148 37.7192 79.8179 38.6021 78.5223 38.6021C77.2267 38.6021 76.2298 37.7192 76.2298 36.4257V36.4257ZM79.5241 36.4257C79.5241 35.8383 79.1271 35.3708 78.5174 35.3708C77.9077 35.3708 77.5107 35.8383 77.5107 36.4257C77.5107 37.0131 77.9077 37.4805 78.5174 37.4805C79.132 37.4805 79.5241 37.0131 79.5241 36.4257Z" fill="#555553"/>
<path d="M83.6531 38.5292L83.0754 37.2047H82.6156V38.5292H81.3458V34.3172H83.5806C84.5615 34.3172 85.0876 34.9714 85.0876 35.7603C85.0876 36.4875 84.6697 36.8721 84.3341 37.0378L85.0925 38.5279H83.6531V38.5292ZM83.808 35.7554C83.808 35.5266 83.6064 35.4277 83.395 35.4277H82.6205V36.093H83.395C83.6076 36.0881 83.808 35.9891 83.808 35.7554Z" fill="#555553"/>
</g>
<g clip-path="url(#clip1)">
<path d="M55.0299 30.9928C53.7553 30.9928 52.7238 32.0305 52.7238 33.3128V34.1823C52.2763 34.2638 51.8274 34.3725 51.8274 34.5135V39.0511C51.8274 39.0511 51.8274 39.1767 51.9676 39.2362C52.4756 39.4432 54.4743 40.1548 54.9334 40.3179C54.9926 40.3399 55.0093 40.3399 55.0247 40.3399C55.0466 40.3399 55.0569 40.3399 55.116 40.3179C55.5752 40.1548 57.579 39.4432 58.087 39.2362C58.2169 39.1818 58.2221 39.0563 58.2221 39.0563V34.5135C58.2221 34.3725 57.7796 34.2586 57.3308 34.1823V33.3128C57.3372 32.0305 56.2993 30.9928 55.0299 30.9928ZM55.0299 32.1017C55.781 32.1017 56.235 32.5584 56.235 33.3141V34.0697C55.3926 34.0102 54.6736 34.0102 53.826 34.0697V33.3141C53.826 32.5571 54.2801 32.1017 55.0299 32.1017ZM55.0247 35.1824C56.0729 35.1824 56.9526 35.2639 56.9526 35.4102V38.2412C56.9526 38.2852 56.9475 38.2903 56.9089 38.3059C56.8716 38.3227 55.1212 38.958 55.1212 38.958C55.1212 38.958 55.0505 38.98 55.0299 38.98C55.008 38.98 54.9386 38.9528 54.9386 38.9528C54.9386 38.9528 53.1881 38.3175 53.1508 38.3007C53.1135 38.2839 53.1071 38.2787 53.1071 38.236V35.405C53.0968 35.2588 53.9765 35.1824 55.0247 35.1824Z" fill="black"/>
<path d="M61.1966 38.2797V35.1795H60.0706V34.0677H63.5813V35.1795H62.4664V38.2797H61.1966Z" fill="black"/>
<path d="M66.4257 38.2797L65.848 36.9553H65.3883V38.2797H64.1185V34.0677H66.3532C67.3341 34.0677 67.8602 34.7219 67.8602 35.5109C67.8602 36.238 67.4423 36.6226 67.1067 36.7883L67.8651 38.2785H66.4257V38.2797ZM66.5757 35.5109C66.5757 35.2821 66.3741 35.1832 66.1627 35.1832H65.3883V35.8485H66.1627C66.3741 35.8435 66.5757 35.7446 66.5757 35.5109Z" fill="black"/>
<path d="M68.5266 38.2797V34.0677H71.7016V35.1795H69.7914V35.595H71.6549V36.7067H69.7914V37.1692H71.7016V38.2797H68.5266Z" fill="black"/>
<path d="M72.3618 38.2847V37.2719L73.9573 35.1844H72.3618V34.0727H75.629V35.0756L74.0286 37.1742H75.6758V38.2859L72.3618 38.2847V38.2847Z" fill="black"/>
<path d="M75.9854 36.1812C75.9854 34.8877 76.9823 33.9998 78.2779 33.9998C79.5686 33.9998 80.5704 34.8827 80.5704 36.1812C80.5704 37.4747 79.5735 38.3576 78.2779 38.3576C76.9823 38.3576 75.9854 37.4747 75.9854 36.1812V36.1812ZM79.2797 36.1812C79.2797 35.5938 78.8827 35.1263 78.273 35.1263C77.6633 35.1263 77.2663 35.5938 77.2663 36.1812C77.2663 36.7686 77.6633 37.236 78.273 37.236C78.8876 37.236 79.2797 36.7686 79.2797 36.1812Z" fill="black"/>
<path d="M83.4087 38.2847L82.831 36.9602H82.3712V38.2847H81.1014V34.0727H83.3362C84.3171 34.0727 84.8432 34.7269 84.8432 35.5158C84.8432 36.243 84.4253 36.6276 84.0897 36.7933L84.8481 38.2834H83.4087V38.2847ZM83.5636 35.5109C83.5636 35.2821 83.362 35.1832 83.1506 35.1832H82.3762V35.8485H83.1506C83.3632 35.8435 83.5636 35.7446 83.5636 35.5109Z" fill="black"/>
</g>
<g clip-path="url(#clip2)">
<path d="M55.1522 31.1151C53.8776 31.1151 52.8461 32.1528 52.8461 33.435V34.3045C52.3986 34.386 51.9497 34.4947 51.9497 34.6357V39.1734C51.9497 39.1734 51.9497 39.2989 52.0899 39.3584C52.5979 39.5654 54.5966 40.2771 55.0557 40.4401C55.1149 40.4621 55.1316 40.4621 55.147 40.4621C55.1689 40.4621 55.1792 40.4621 55.2384 40.4401C55.6975 40.2771 57.7013 39.5654 58.2093 39.3584C58.3392 39.3041 58.3444 39.1786 58.3444 39.1786V34.6357C58.3444 34.4947 57.9019 34.3808 57.4531 34.3045V33.435C57.4595 32.1528 56.4216 31.1151 55.1522 31.1151ZM55.1522 32.2239C55.9033 32.2239 56.3573 32.6807 56.3573 33.4363V34.1919C55.5149 34.1324 54.7959 34.1324 53.9484 34.1919V33.4363C53.9484 32.6794 54.4024 32.2239 55.1522 32.2239ZM55.147 35.3047C56.1952 35.3047 57.075 35.3862 57.075 35.5324V38.3634C57.075 38.4074 57.0698 38.4126 57.0312 38.4281C56.9939 38.4449 55.2435 39.0802 55.2435 39.0802C55.2435 39.0802 55.1728 39.1022 55.1522 39.1022C55.1303 39.1022 55.0609 39.0751 55.0609 39.0751C55.0609 39.0751 53.3104 38.4398 53.2731 38.4229C53.2358 38.4061 53.2294 38.4009 53.2294 38.3583V35.5272C53.2191 35.381 54.0988 35.3047 55.147 35.3047Z" fill="#212121"/>
<path d="M61.3188 38.402V35.3018H60.1928V34.1901H63.7035V35.3018H62.5886V38.402H61.3188Z" fill="#212121"/>
<path d="M66.5479 38.402L65.9702 37.0776H65.5105V38.402H64.2407V34.1901H66.4754C67.4563 34.1901 67.9824 34.8442 67.9824 35.6332C67.9824 36.3603 67.5645 36.7449 67.2289 36.9106L67.9873 38.4008H66.5479V38.402ZM66.6979 35.6332C66.6979 35.4044 66.4963 35.3055 66.2849 35.3055H65.5105V35.9708H66.2849C66.4963 35.9659 66.6979 35.8669 66.6979 35.6332Z" fill="#212121"/>
<path d="M68.6487 38.402V34.1901H71.8238V35.3018H69.9136V35.7173H71.7771V36.829H69.9136V37.2915H71.8238V38.402H68.6487Z" fill="#212121"/>
<path d="M72.4839 38.4069V37.3941L74.0795 35.3067H72.4839V34.195H75.7512V35.1979L74.1508 37.2964H75.7979V38.4082L72.4839 38.4069V38.4069Z" fill="#212121"/>
<path d="M76.1077 36.3035C76.1077 35.0099 77.1046 34.122 78.4002 34.122C79.6909 34.122 80.6927 35.005 80.6927 36.3035C80.6927 37.597 79.6958 38.4799 78.4002 38.4799C77.1046 38.4799 76.1077 37.597 76.1077 36.3035V36.3035ZM79.402 36.3035C79.402 35.7161 79.005 35.2486 78.3953 35.2486C77.7856 35.2486 77.3885 35.7161 77.3885 36.3035C77.3885 36.8909 77.7856 37.3583 78.3953 37.3583C79.0099 37.3583 79.402 36.8909 79.402 36.3035Z" fill="#212121"/>
<path d="M83.5309 38.4069L82.9532 37.0825H82.4934V38.4069H81.2236V34.195H83.4584C84.4393 34.195 84.9654 34.8492 84.9654 35.6381C84.9654 36.3653 84.5475 36.7499 84.2119 36.9156L84.9703 38.4057H83.5309V38.4069ZM83.6858 35.6332C83.6858 35.4044 83.4842 35.3055 83.2728 35.3055H82.4983V35.9708H83.2728C83.4854 35.9658 83.6858 35.8669 83.6858 35.6332Z" fill="#212121"/>
</g>
<rect x="50.1151" y="45.1798" width="36.6907" height="21.4029" rx="1.83453" fill="black"/>
<path d="M68.4654 50.6834C67.2465 50.6834 66.2601 51.7017 66.2601 52.9601V53.8133C65.8321 53.8933 65.4029 54 65.4029 54.1384V58.5914C65.4029 58.5914 65.4029 58.7146 65.537 58.773C66.0228 58.9761 67.934 59.6745 68.3731 59.8345C68.4297 59.8561 68.4457 59.8561 68.4604 59.8561C68.4814 59.8561 68.4912 59.8561 68.5478 59.8345C68.9868 59.6745 70.903 58.9761 71.3889 58.773C71.5131 58.7196 71.518 58.5965 71.518 58.5965V54.1384C71.518 54 71.0949 53.8883 70.6657 53.8133V52.9601C70.6718 51.7017 69.6793 50.6834 68.4654 50.6834ZM68.4654 51.7716C69.1836 51.7716 69.6178 52.2198 69.6178 52.9613V53.7029C68.8122 53.6445 68.1247 53.6445 67.3142 53.7029V52.9613C67.3142 52.2185 67.7483 51.7716 68.4654 51.7716ZM68.4604 54.7949C69.4628 54.7949 70.3041 54.8749 70.3041 55.0183V57.7965C70.3041 57.8397 70.2992 57.8448 70.2623 57.86C70.2266 57.8765 68.5527 58.5 68.5527 58.5C68.5527 58.5 68.485 58.5216 68.4654 58.5216C68.4445 58.5216 68.378 58.4949 68.378 58.4949C68.378 58.4949 66.7041 57.8715 66.6685 57.8549C66.6328 57.8384 66.6267 57.8334 66.6267 57.7915V55.0133C66.6168 54.8698 67.4581 54.7949 68.4604 54.7949Z" fill="white"/>
</g>
<defs>
<clipPath id="clip0">
<rect width="33.0216" height="9.34573" fill="white" transform="translate(52.072 31.2373)"/>
</clipPath>
<clipPath id="clip1">
<rect width="33.0216" height="9.34573" fill="white" transform="translate(51.8274 30.9928)"/>
</clipPath>
<clipPath id="clip2">
<rect width="33.0216" height="9.34573" fill="white" transform="translate(51.9497 31.1151)"/>
</clipPath>
</defs>
</svg>
