<?xml version="1.0" encoding="UTF-8"?>
<svg width="522px" height="825px" viewBox="0 0 522 825" version="1.1" xmlns="http://www.w3.org/2000/svg" xmlns:xlink="http://www.w3.org/1999/xlink">
    <!-- Generator: Sketch 52.6 (67491) - http://www.bohemiancoding.com/sketch -->
    <title>sef_logo</title>
    <desc>Created with Sketch.</desc>
    <defs>
        <linearGradient x1="0%" y1="0%" x2="100%" y2="100%" id="linearGradient-1">
            <stop stop-color="#00AFE8" offset="0%"></stop>
            <stop stop-color="#61F4C0" offset="100%"></stop>
        </linearGradient>
        <polygon id="path-2" points="0.109083845 0.252672354 294.579397 0.252672354 294.579397 307.55108 0.109083845 307.55108"></polygon>
    </defs>
    <g id="sef_logo" stroke="none" stroke-width="1" fill="none" fill-rule="evenodd">
        <g id="Group" transform="translate(101.000000, 99.000000)">
            <g id="sefwallet_logo" transform="translate(0.503069, 376.239964)" fill="#111111">
                <path d="M0.508150739,150.241595 C0.948916251,145.419719 2.45486572,140.597876 5.0259987,135.776 C7.59713167,130.954124 10.6457603,127.008981 14.1718858,123.940514 C29.8925313,133.438129 44.8050979,138.186921 58.9095945,138.186921 C65.0803121,138.186921 69.5981641,136.798805 72.4631373,134.022594 C75.3281117,131.246383 76.760601,127.812629 76.760601,123.721333 C76.760601,116.853824 72.1325609,111.447495 62.8764862,107.502337 L36.8713133,96.5435533 C26.7337029,92.0139261 18.9468443,86.5710607 13.5107367,80.214967 C8.07462861,73.8588733 5.35657457,65.7859019 5.35657258,55.9960539 C5.35657258,49.2746623 6.71559988,43.1377486 9.43365459,37.5852932 C12.1517093,32.0328367 15.9716786,27.210976 20.8935618,23.1196959 C25.8154449,19.0284146 31.6555894,15.8503683 38.4139963,13.5855547 C45.1724022,11.3207412 52.6654211,10.1883327 60.8930431,10.1883327 C77.3482926,10.1883327 93.9504702,14.3526718 110.699558,22.6813445 C109.96495,33.9323578 105.998053,42.6993874 98.7988877,48.9824277 C83.8128543,41.8226956 70.5898878,38.2428246 59.1299828,38.2428246 C53.2531082,38.2428246 48.8454509,39.5578776 45.9070108,42.1879826 C42.9685708,44.8180886 41.4993535,47.8134925 41.4993535,51.1741823 C41.4993535,56.8727446 45.8335495,61.4754351 54.5019371,64.9822537 L80.9478756,76.1602081 C92.1139321,80.8359618 100.451754,86.8267577 105.961325,94.1326174 C111.470895,101.438477 114.22568,109.913272 114.22568,119.557004 C114.22568,126.424513 112.97684,132.707551 110.47917,138.406108 C107.981501,144.104654 104.271719,149.036117 99.3498359,153.200466 C94.4279527,157.364815 88.2939674,160.615925 80.94787,162.953784 C73.6017782,165.291633 65.0068463,166.460562 55.1630801,166.460584 C36.0632357,166.460584 17.8449248,161.054244 0.508142254,150.241595 L0.508150739,150.241595 Z M218.907527,119.557004 L161.387619,119.557004 C161.681463,126.132278 163.371068,131.246361 166.456425,134.899297 C169.541781,138.552232 174.610597,140.378689 181.66284,140.378689 C185.188957,140.378689 189.26605,139.867275 193.894089,138.84447 C198.522128,137.821654 203.848054,136.141311 209.871854,133.80344 C214.720287,138.771419 217.732171,145.492814 218.907549,153.967603 C207.153785,162.296279 192.75546,166.460606 175.712515,166.460606 C166.456435,166.460606 158.706311,164.999439 152.462132,162.077104 C146.217953,159.154757 141.149148,155.063482 137.255717,149.803254 C133.362285,144.543016 130.6075,138.333057 128.991361,131.17331 C127.375223,124.013567 126.567158,116.196303 126.567147,107.721508 C126.567147,99.5389462 127.558872,91.9773895 129.542321,85.0368277 C131.525769,78.0962658 134.53767,72.0689323 138.578013,66.9548272 C142.618355,61.840722 147.760626,57.8224997 154.004805,54.9001602 C160.248984,51.9778206 167.558353,50.5166509 175.932902,50.5166509 C182.985162,50.5166509 189.339526,51.6855871 194.996014,54.0234585 C200.652492,56.3613299 205.464187,59.5759041 209.431078,63.6671897 C213.397979,67.7584765 216.446601,72.6534004 218.576964,78.3519627 C220.707328,84.050525 221.772504,90.260502 221.772526,96.9818937 C221.772526,105.89504 220.817541,113.42007 218.907549,119.556984 L218.907527,119.557004 Z M161.167221,95.8860218 L190.257751,95.8860218 L190.257751,93.475086 C190.257751,88.0687572 189.045645,83.6121846 186.621446,80.105366 C184.197235,76.5985485 180.560922,74.8451441 175.712494,74.8451441 C171.010987,74.8451441 167.521593,76.4889574 165.244313,79.7765948 C162.967031,83.0642323 161.607997,88.4340343 161.167221,95.8860218 Z M248.879579,163.17296 L248.879579,77.6944412 L229.926668,77.9136223 C229.045137,74.2606979 228.60436,70.2424756 228.60436,65.8589553 C228.60436,61.4754351 229.045137,57.3841593 229.926668,53.5851181 L247.116516,53.8042993 C246.381903,48.3979705 246.014602,43.5030465 246.014602,39.1195263 C246.014602,28.1607421 249.577465,19.0649523 256.703157,11.8321558 C263.828861,4.59936046 273.121677,0.982962768 284.581594,0.982962768 C296.041511,0.982962768 307.281035,3.02860066 318.300153,7.11988082 C318.447093,10.9189275 317.785923,15.0467354 316.316708,19.5033081 C314.847493,23.9598818 313.010955,27.3571038 310.807138,29.6949752 C303.901806,27.6493329 298.245306,26.6265134 293.83765,26.6265134 C283.993888,26.6265134 279.072002,31.6675497 279.072002,41.7496323 C279.072002,45.9870248 279.365849,50.0783105 279.953533,54.0234695 L308.823692,53.5851181 C309.705223,57.3841703 310.146,61.475446 310.146,65.8589553 C310.146,70.2424646 309.705223,74.2606869 308.823692,77.9136223 L282.377755,77.475271 L282.377755,163.17296 C277.382415,164.049663 271.872845,164.488025 265.849044,164.488025 C259.825244,164.488025 254.168766,164.049663 248.879579,163.17296 Z" id="Fill-146"></path>
                <path d="M27.2141329,214.293954 L34.9414022,239.718904 L35.0858371,239.718904 L43.2464116,214.293954 L50.1070694,214.293954 L58.773164,239.718904 L58.9175989,239.718904 L66.2837805,214.293954 L73.1444384,214.293954 L62.0951678,248.337532 L55.5233794,248.337532 L46.4961961,222.91258 L46.3517615,222.91258 L38.1911868,248.337532 L31.1860925,248.337532 L19.9201681,214.293954 L27.2141322,214.293954 L27.2141329,214.293954 Z M111.029725,213.432088 C115.362772,213.432088 118.793099,214.413463 121.320713,216.376569 C123.848328,218.339675 125.184348,221.069052 125.328786,224.564265 L125.328786,242.807023 C125.328786,244.530749 125.425056,246.374201 125.617656,248.337313 L119.840255,248.337313 C119.695817,246.805133 119.623607,245.081411 119.623607,243.166133 L119.479168,243.166133 C117.98665,245.368698 116.265491,246.924932 114.315619,247.834556 C112.365744,248.744177 110.090894,249.199168 107.491069,249.199168 C103.976465,249.199168 101.124016,248.265484 98.9333025,246.398111 C96.7425893,244.530741 95.6474078,242.06474 95.6474078,239.000459 C95.6474078,235.122076 97.2843647,232.189228 100.558199,230.202276 C103.832034,228.215323 108.453735,227.221667 114.423953,227.221667 L119.262523,227.221667 L119.262523,226.000695 C119.262523,223.702392 118.504243,221.894995 116.987676,220.578141 C115.47111,219.261285 113.485133,218.603038 111.029735,218.603038 C109.20025,218.603038 107.599406,218.878331 106.227277,219.428988 C104.855146,219.979644 103.230253,220.997147 101.352595,222.481492 L97.4528516,218.459466 C101.160139,215.203563 105.685646,213.527816 111.029735,213.431934 L111.029725,213.432088 Z M102.14698,238.497932 C102.14698,242.184913 104.602442,244.028214 109.513161,244.028214 C112.450029,244.028214 114.796956,243.154361 116.554368,241.406719 C118.31178,239.659076 119.214354,237.133312 119.262523,233.829508 L119.262523,231.962141 L115.579432,231.962141 C111.342794,231.962141 108.044984,232.500804 105.685639,233.578133 C103.326295,234.655462 102.146983,236.295369 102.146983,238.497932 L102.14698,238.497932 Z M160.25315,194.040177 L160.25315,248.337532 L153.753578,248.337532 L153.753578,194.040177 L160.25315,194.040177 Z M196.11634,194.040177 L196.11634,248.337532 L189.616772,248.337532 L189.616772,194.040177 L196.11634,194.040177 Z M240.573412,213.432088 C245.821098,213.432088 249.901746,215.071927 252.814284,218.351888 C255.726825,221.631849 257.207626,226.144564 257.255672,231.890318 L257.255672,233.685865 L229.813039,233.685865 C229.813039,236.463003 230.932417,238.79707 233.171154,240.688503 C235.409889,242.579937 238.142247,243.549381 241.367837,243.597287 C244.930541,243.597287 248.059861,241.897481 250.756115,238.497932 L255.666906,242.232667 C252.008015,246.877034 246.952428,249.199395 240.501234,249.199395 C235.253552,249.199395 231.028462,247.535493 227.827076,244.207773 C224.625687,240.880056 222.97659,236.582444 222.880184,231.315743 C222.880184,226.24045 224.529129,222.014807 227.827076,218.639179 C231.125021,215.263551 235.373802,213.527974 240.573456,213.432092 L240.573412,213.432088 Z M250.322774,228.514686 C250.226519,225.306617 249.311733,222.852606 247.578517,221.152941 C245.845298,219.453276 243.462122,218.603263 240.428988,218.603263 C238.406895,218.603263 236.589543,219.094021 234.976577,220.075612 C233.363607,221.057203 232.099931,222.32608 231.18516,223.88217 C230.270392,225.43826 229.813024,226.982508 229.813024,228.514686 L250.322774,228.514686 Z M292.541108,204.74164 L292.541025,214.293954 L301.857086,214.293954 L301.857086,219.89606 L292.541025,219.89606 L292.541025,236.271451 C292.541025,238.474015 292.853954,240.173896 293.47986,241.370804 C294.105768,242.567716 295.429735,243.166352 297.451817,243.166352 C299.37764,243.166352 300.918251,242.831162 302.073731,242.160845 L302.073731,248.050237 C300.821996,248.720554 298.848073,249.103577 296.151899,249.199319 C293.552066,249.199319 291.541886,248.804295 290.121747,248.014258 C288.701609,247.224221 287.666354,246.122975 287.016396,244.710451 C286.366436,243.297926 286.041471,241.083445 286.041471,238.066921 L286.041471,219.895984 L278.530848,219.895984 L278.530848,214.293878 L286.041471,214.293878 L286.041471,204.741566 L292.541054,204.741566 L292.541108,204.74164 Z" id="Fill-148"></path>
            </g>
            <g id="logo_vector" transform="translate(13.003069, 0.760036)">
                <g id="Group-115" transform="translate(0.228841, 0.000000)">
                    <mask id="mask-3" fill="white">
                        <use xlink:href="#path-2"></use>
                    </mask>
                    <use id="Clip-109" fill="url(#linearGradient-1)" xlink:href="#path-2"></use>
                </g>
                <path d="M23.6620506,249.027173 L35.1755256,249.027173 L35.1755256,271.716542 C35.1755256,273.02318 36.2418244,274.083634 37.5556539,274.083634 L257.504893,274.083634 C258.81873,274.083634 259.885021,273.02318 259.885021,271.716542 L259.885021,41.9950404 C259.885021,40.6884072 258.81873,39.627949 257.504893,39.627949 L37.5556508,39.627949 C36.2418215,39.627949 35.1755224,40.6884072 35.1755224,41.9950404 L35.1755224,64.6875572 L23.6620478,64.6875572 C22.3482182,64.6875572 21.2819194,65.7480173 21.2819194,67.0546486 L21.2819194,97.5175399 C21.2819194,98.8241712 22.3482182,99.8846313 23.6620478,99.8846313 L35.1755224,99.8846313 L35.1755224,213.826946 L23.6620478,213.826946 C22.3482182,213.826946 21.2819194,214.890553 21.2819194,216.194037 L21.2819194,246.656925 C21.2819223,247.966719 22.3482182,249.027173 23.6620506,249.027173 Z M26.0421789,69.4248961 L49.989442,69.4248961 C54.2641525,69.4248961 57.7423165,72.8840056 57.7423165,77.1353049 L57.7423165,87.4431989 C57.7423165,91.6976512 54.2641525,95.1536078 49.989442,95.1536078 L26.0421789,95.1536078 L26.0421789,69.4248961 Z M26.0421789,218.564282 L49.989442,218.564282 C54.2641525,218.564282 57.7423165,222.023394 57.7423165,226.27469 L57.7423165,236.582581 C57.7423165,240.837033 54.2641525,244.29299 49.989442,244.29299 L26.0421789,244.29299 L26.0421789,218.564282 Z" id="Fill-144" stroke="#FFFFFF" stroke-width="2" fill="#FFFFFF"></path>
                <g id="Group-2" transform="translate(87.753610, 87.753610)">
                    <path d="M57.3137718,113.969148 C88.6924211,113.969148 114.222194,88.5792151 114.222194,57.3724529 C114.222194,26.1690356 88.6924211,0.779106161 57.3137853,0.779106161 C25.9317625,0.779106161 0.398615932,26.1690356 0.398615932,57.3724529 C0.398602424,88.5825837 25.9283754,113.969148 57.3137718,113.969148 Z M57.3137718,5.82014231 C85.8996841,5.82014231 109.156764,28.949834 109.156764,57.375808 C109.156764,85.8051437 85.8996841,108.934835 57.3137718,108.934835 C28.7244893,108.934835 5.46403224,85.8051437 5.46403224,57.375808 C5.46403224,28.949834 28.7244893,5.82014231 57.3137718,5.82014231 Z" id="Fill-110" stroke="#999999" stroke-width="6" fill="#111111"></path>
                    <path d="M57.3137718,83.4273533 C71.7502536,83.4273533 83.4919097,71.7432839 83.4919097,57.3791664 C83.4919097,47.1761695 77.5586029,37.9908017 68.2956203,33.7322758 L60.2247055,19.1599306 C59.7789477,18.3572629 58.9313358,17.8568462 58.0060405,17.8568462 C57.0807485,17.8568462 56.2331367,18.3538944 55.7873788,19.1599306 L48.1183181,32.9967671 C37.9097919,36.7985396 31.1187356,46.4708971 31.1187356,57.3791664 C31.1187458,71.7399288 42.8705429,83.4273533 57.3137718,83.4273533 Z M50.6713082,37.4400115 C51.2757862,37.2384974 51.7857096,36.8186904 52.0930123,36.2645552 L58.0094309,25.5880193 L64.2703022,36.8993 C64.5472157,37.3929931 64.9828326,37.7825774 65.5028935,38.0042288 C73.3509395,41.2955126 78.4231199,48.8990576 78.4231199,57.3724529 C78.4231199,68.9591304 68.9507627,78.3863138 57.3104118,78.3863138 C45.6599198,78.3863138 36.1841891,68.9557719 36.1841891,57.3724529 C36.1841756,48.307976 42.0060396,40.2946926 50.6713082,37.4400115 Z" id="Fill-111" stroke="#999999" stroke-width="6" fill="#111111"></path>
                    <path d="M57.3103983,71.226085 C64.9828326,71.226085 71.2302061,65.0129476 71.2302061,57.3791664 C71.2302061,49.7487571 64.9828461,43.5356029 57.3103983,43.5356029 C49.634587,43.5356029 43.3872168,49.7487437 43.3872168,57.3791664 C43.3872168,65.0129342 49.634587,71.226085 57.3103983,71.226085 Z M57.3103983,48.5732873 C62.1900956,48.5732873 66.1647763,52.5228286 66.1647763,57.3791664 C66.1647763,62.2354908 62.1934827,66.1884006 57.3103983,66.1884006 C52.4273273,66.1884006 48.4526466,62.2354908 48.4526466,57.3791664 C48.4526466,52.522842 52.4273273,48.5732873 57.3103983,48.5732873 Z" id="Fill-112" fill="#999999"></path>
                    <path d="M132.60295,152.819773 C136.60126,152.819773 139.849906,149.582232 139.849906,145.746855 L142.862141,91.3398628 C142.862141,85.7144486 138.262734,81.1402345 132.60295,81.1402345 C126.949921,81.1402345 122.347137,85.7144486 122.353887,91.4775595 L125.359372,145.609158 C125.355999,149.582232 128.608022,152.819773 132.60295,152.819773 Z M132.60295,86.1712188 C135.466607,86.1712188 137.796711,88.4818367 137.800088,91.1954627 L134.787853,145.602471 C134.787853,146.801447 133.808533,147.772044 132.606327,147.772044 C131.404122,147.772044 130.424802,146.801447 130.424802,145.461416 L127.41594,91.3298177 C127.412567,88.4818367 129.742671,86.1712188 132.60295,86.1712188 Z" id="Fill-113" stroke="#999999" stroke-width="3" fill="#999999"></path>
                </g>
            </g>
        </g>
    </g>
</svg>