<?xml version="1.0" encoding="UTF-8"?>
<svg width="95px" height="99px" viewBox="0 0 95 99" version="1.1" xmlns="http://www.w3.org/2000/svg" xmlns:xlink="http://www.w3.org/1999/xlink">
    <!-- Generator: Sketch 52.6 (67491) - http://www.bohemiancoding.com/sketch -->
    <title>icon</title>
    <desc>Created with Sketch.</desc>
    <defs>
        <polygon id="path-1" points="0.78436928 0.0799375417 93.510599 0.0799375417 93.510599 97.2021902 0.78436928 97.2021902"></polygon>
    </defs>
    <g id="icon" stroke="none" stroke-width="1" fill="none" fill-rule="evenodd">
        <g id="Group">
            <g id="Group-158">
                <mask id="mask-2" fill="white">
                    <use xlink:href="#path-1"></use>
                </mask>
                <g id="Clip-152"></g>
                <path d="M92.7130683,0.0798296257 L1.58189994,0.0798296257 C1.14166302,0.0798296257 0.78436928,0.436475671 0.78436928,0.875914549 L0.78436928,96.4061053 C0.78436928,96.8455452 1.14166302,97.2021902 1.58189994,97.2021902 L92.7130683,97.2021902 C93.1533074,97.2021902 93.510599,96.8455452 93.510599,96.4061053 L93.510599,0.875914549 C93.510599,0.436475671 93.1533074,0.0798296257 92.7130683,0.0798296257 Z M91.9155377,95.6100204 L2.37943061,95.6100204 L2.37943061,1.67199947 L91.9155377,1.67199947 L91.9155377,95.6100204 Z" id="Fill-151" fill="#FFFFFF" mask="url(#mask-2)"></path>
                <path d="M46.3584604,63.7549454 C56.2393337,63.7549454 64.2784449,55.7304083 64.2784449,45.8674511 C64.2784449,36.0055511 56.2393337,27.9810151 46.3584647,27.9810151 C36.4765291,27.9810151 28.4363556,36.0055511 28.4363556,45.8674511 C28.4363513,55.731473 36.4754625,63.7549454 46.3584604,63.7549454 Z M46.3584604,29.5742442 C55.3599243,29.5742442 62.6833836,36.8844278 62.6833836,45.8685115 C62.6833836,54.8536577 55.3599243,62.1638413 46.3584604,62.1638413 C37.3559353,62.1638413 30.0314126,54.8536577 30.0314126,45.8685115 C30.0314126,36.8844278 37.3559353,29.5742442 46.3584604,29.5742442 Z" id="Fill-153" fill="#FFFFFF" mask="url(#mask-2)"></path>
                <path d="M46.3584604,54.1021525 C50.9043873,54.1021525 54.6017363,50.4093799 54.6017363,45.8695729 C54.6017363,42.6448962 52.7333878,39.741843 49.8165523,38.3959277 L47.275089,33.79031 C47.1347236,33.5366253 46.8678177,33.3784677 46.57645,33.3784677 C46.2850833,33.3784677 46.0181775,33.5355607 45.8778121,33.79031 L43.4628892,38.1634688 C40.24831,39.3650263 38.1098634,42.4219934 38.1098634,45.8695729 C38.1098666,50.4083195 41.8104089,54.1021525 46.3584604,54.1021525 Z M44.2668044,39.5677647 C44.4571494,39.5040758 44.61772,39.371395 44.7144871,39.1962595 L46.5775176,35.8219198 L48.5490134,39.3968718 C48.6362112,39.5529044 48.7733833,39.6760333 48.9371461,39.7460867 C51.4084299,40.7863032 53.0056169,43.1894182 53.0056169,45.8674511 C53.0056169,49.5294428 50.0228512,52.5089223 46.3574024,52.5089223 C42.6887602,52.5089223 39.7049322,49.5283814 39.7049322,45.8674511 C39.7049279,43.0026058 41.538184,40.4699921 44.2668044,39.5677647 Z" id="Fill-154" fill="#FFFFFF" mask="url(#mask-2)"></path>
                <path d="M46.3573981,50.2459182 C48.7733833,50.2459182 50.7406288,48.2822442 50.7406288,45.8695729 C50.7406288,43.4579674 48.7733875,41.4942881 46.3573981,41.4942881 C43.9403496,41.4942881 41.9731051,43.4579632 41.9731051,45.8695729 C41.9731051,48.2822399 43.9403496,50.2459182 46.3573981,50.2459182 Z M46.3573981,43.0864579 C47.8939739,43.0864579 49.1455674,44.334718 49.1455674,45.8695729 C49.1455674,47.4044236 47.8950404,48.6537483 46.3573981,48.6537483 C44.81976,48.6537483 43.5681665,47.4044236 43.5681665,45.8695729 C43.5681665,44.3347223 44.81976,43.0864579 46.3573981,43.0864579 Z" id="Fill-155" fill="#FFFFFF" mask="url(#mask-2)"></path>
                <path d="M70.0663908,76.0337603 C71.3254248,76.0337603 72.3483961,75.010529 72.3483961,73.7983507 L73.2969238,56.6029163 C73.2969238,54.8249934 71.8486092,53.3793042 70.0663908,53.3793042 C68.2862991,53.3793042 66.8369211,54.8249934 66.8390468,56.6464357 L67.7854488,73.7548314 C67.7843865,75.010529 68.8084212,76.0337603 70.0663908,76.0337603 Z M70.0663908,54.9693565 C70.9681321,54.9693565 71.7018624,55.6996317 71.7029258,56.5572784 L70.7543981,73.752718 C70.7543981,74.1316566 70.4460186,74.4384157 70.0674541,74.4384157 C69.6888897,74.4384157 69.3805101,74.1316566 69.3805101,73.7081373 L68.4330448,56.5997416 C68.4319825,55.6996317 69.1657128,54.9693565 70.0663908,54.9693565 Z" id="Fill-156" fill="#FFFFFF" mask="url(#mask-2)"></path>
                <polygon id="Fill-157" fill="#FFFFFF" mask="url(#mask-2)" points="45.5598674 56.147559 47.1549288 56.147559 47.1549288 59.1100567 45.5598674 59.1100567"></polygon>
            </g>
            <polygon id="Fill-159" fill="#FFFFFF" points="54.2306297 39.0905773 53.1027618 37.964754 55.2013483 35.8699718 56.3292162 36.9957951"></polygon>
            <polygon id="Fill-161" fill="#FFFFFF" points="38.4803721 52.5617733 39.60824 53.6875966 37.510405 55.7816286 36.3825371 54.6558053"></polygon>
            <polygon id="Fill-163" fill="#FFFFFF" points="38.4835876 39.0889193 36.3838139 36.9950258 37.5112032 35.8685656 39.6109769 37.9624591"></polygon>
            <polygon id="Fill-165" fill="#FFFFFF" points="54.22746 52.5658747 56.3272337 54.6597683 55.1998444 55.7862285 53.1000707 53.6923349"></polygon>
            <g id="Group-170" transform="translate(33.000000, 45.000000)" fill="#FFFFFF">
                <polygon id="Fill-167" points="23.6955223 0.0289072618 26.6655257 0.0289072618 26.6655257 1.62107711 23.6955223 1.62107711"></polygon>
                <polygon id="Fill-169" points="0.0482074367 0.0289072618 3.01714805 0.0289072618 3.01714805 1.62107711 0.0482074367 1.62107711"></polygon>
            </g>
            <polygon id="Fill-171" fill="#FFFFFF" points="41.6640995 36.5995177 40.5279957 33.862762 42.0015134 33.2532793 43.1376171 35.990035"></polygon>
            <polygon id="Fill-173" fill="#FFFFFF" points="51.0476924 55.0556123 52.1839062 57.7936442 50.710229 58.4029676 49.5740153 55.6649358"></polygon>
            <polygon id="Fill-175" fill="#FFFFFF" points="51.050342 36.5949835 49.5756829 35.9854133 50.7111931 33.2483615 52.1858522 33.8579317"></polygon>
            <polygon id="Fill-177" fill="#FFFFFF" points="41.6622051 55.057574 43.1357227 55.6670567 41.999619 58.4038124 40.5261013 57.7943297"></polygon>
            <polygon id="Fill-179" fill="#FFFFFF" points="36.4985404 42.6082429 33.7559242 41.4762724 34.3658033 40.0039679 37.1084194 41.1359384"></polygon>
            <polygon id="Fill-181" fill="#FFFFFF" points="56.2129332 49.0426798 58.9559374 50.1768337 58.3451007 51.6488196 55.6020965 50.5146657"></polygon>
            <polygon id="Fill-183" fill="#FFFFFF" points="55.6008942 41.1356267 58.3433048 40.0005837 58.9538062 41.4702911 56.2113957 42.6053341"></polygon>
            <polygon id="Fill-185" fill="#FFFFFF" points="37.1058083 50.5153813 34.363101 51.650128 33.7527589 50.1802614 36.4954662 49.0455147"></polygon>
            <path d="M5.64186303,79.6405589 L9.49978502,79.6405589 L9.49978502,87.2713015 C9.49978502,87.7107414 9.85707919,88.0673864 10.2973157,88.0673864 L83.9976543,88.0673864 C84.4378934,88.0673864 84.795185,87.7107414 84.795185,87.2713015 L84.795185,10.0128464 C84.795185,9.5734079 84.4378934,9.21676143 83.9976543,9.21676143 L10.2973146,9.21676143 C9.85707823,9.21676143 9.49978396,9.5734079 9.49978396,10.0128464 L9.49978396,17.6446474 L5.64186208,17.6446474 C5.20162558,17.6446474 4.84433141,18.0012945 4.84433141,18.4407323 L4.84433141,28.6858156 C4.84433141,29.1252534 5.20162558,29.4819005 5.64186208,29.4819005 L9.49978396,29.4819005 L9.49978396,67.8022454 L5.64186208,67.8022454 C5.20162558,67.8022454 4.84433141,68.1599508 4.84433141,68.5983303 L4.84433141,78.8434126 C4.84433237,79.283914 5.20162558,79.6405589 5.64186303,79.6405589 Z M6.4393937,19.2378787 L14.4636151,19.2378787 C15.8959802,19.2378787 17.0614394,20.4012241 17.0614394,21.8309937 L17.0614394,25.2976781 C17.0614394,26.7285081 15.8959802,27.8907932 14.4636151,27.8907932 L6.4393937,27.8907932 L6.4393937,19.2378787 Z M11.0948464,29.4829609 L14.4636151,29.4829609 C16.7753907,29.4829609 18.6565007,27.6052609 18.6565007,25.297676 L18.6565007,21.8309915 C18.6565007,19.5223453 16.7753907,17.6457067 14.4636151,17.6457067 L11.0948464,17.6457067 L11.0948464,10.8099901 L83.2001236,10.8099901 L83.2001236,86.4783988 L11.0948464,86.4783988 L11.0948464,79.6426808 L14.4636151,79.6426808 C16.7753907,79.6426808 18.6565007,77.764985 18.6565007,75.4584563 L18.6565007,71.9907125 C18.6565007,69.682063 16.7753907,67.8064891 14.4636151,67.8064891 L11.0948464,67.8064891 L11.0948464,29.4829609 Z M6.4393937,69.3954756 L14.4636151,69.3954756 C15.8959802,69.3954756 17.0614394,70.5588221 17.0614394,71.9885907 L17.0614394,75.4552741 C17.0614394,76.886104 15.8959802,78.0483891 14.4636151,78.0483891 L6.4393937,78.0483891 L6.4393937,69.3954756 Z" id="Fill-187" fill="#FFFFFF"></path>
        </g>
    </g>
</svg>