<?xml version="1.0" encoding="UTF-8"?>
<svg width="107px" height="200px" viewBox="0 0 107 200" version="1.1" xmlns="http://www.w3.org/2000/svg" xmlns:xlink="http://www.w3.org/1999/xlink">
    <!-- Generator: Sketch 52.6 (67491) - http://www.bohemiancoding.com/sketch -->
    <title>sefwallet_logo</title>
    <desc>Created with Sketch.</desc>
    <defs>
        <polygon id="path-1" points="0.615926804 0.0798575833 93.6838354 0.0798575833 93.6838354 97.2021103 0.615926804 97.2021103"></polygon>
    </defs>
    <g id="Page-2" stroke="none" stroke-width="1" fill="none" fill-rule="evenodd">
        <g id="sefwallet_logo">
            <g id="Group-115" transform="translate(7.000000, 0.000000)">
                <mask id="mask-2" fill="white">
                    <use xlink:href="#path-1"></use>
                </mask>
                <g id="Clip-109"></g>
                <path d="M92.883366,0.0797496673 L1.41639622,0.0797496673 C0.974537103,0.0797496673 0.615926804,0.436395713 0.615926804,0.87583459 L0.615926804,96.4060253 C0.615926804,96.8454653 0.974537103,97.2021103 1.41639622,97.2021103 L92.883366,97.2021103 C93.3252272,97.2021103 93.6838354,96.8454653 93.6838354,96.4060253 L93.6838354,0.87583459 C93.6838354,0.436395713 93.3252272,0.0797496673 92.883366,0.0797496673 Z M92.0828966,95.6099404 L2.21686564,95.6099404 L2.21686564,1.67191951 L92.0828966,1.67191951 L92.0828966,95.6099404 Z" id="Fill-108" fill="#111111" mask="url(#mask-2)"></path>
                <path d="M46.35795,63.7548655 C56.2752324,63.7548655 64.3439663,55.7303284 64.3439663,45.8673712 C64.3439663,36.0054711 56.2752324,27.9809351 46.3579542,27.9809351 C36.4396056,27.9809351 28.3698055,36.0054711 28.3698055,45.8673712 C28.3698012,55.731393 36.4385351,63.7548655 46.35795,63.7548655 Z M46.35795,29.5741643 C55.3925825,29.5741643 62.7430274,36.8843478 62.7430274,45.8684315 C62.7430274,54.8535778 55.3925825,62.1637613 46.35795,62.1637613 C37.3222523,62.1637613 29.9707401,54.8535778 29.9707401,45.8684315 C29.9707401,36.8843478 37.3222523,29.5741643 46.35795,29.5741643 Z" id="Fill-110" fill="#111111" mask="url(#mask-2)"></path>
                <path d="M46.35795,54.1020725 C50.9206278,54.1020725 54.6316008,50.4092999 54.6316008,45.869493 C54.6316008,42.6448162 52.7563678,39.741763 49.8287843,38.3958477 L47.2779562,33.79023 C47.1370735,33.5365454 46.8691842,33.3783877 46.5767428,33.3783877 C46.2843025,33.3783877 46.0164132,33.5354807 45.8755305,33.79023 L43.4517091,38.1633888 C40.2252848,39.3649463 38.0789584,42.4219135 38.0789584,45.869493 C38.0789616,50.4082396 41.7931397,54.1020725 46.35795,54.1020725 Z M44.2585866,39.5676847 C44.449633,39.5039958 44.6107953,39.371315 44.7079189,39.1961795 L46.5778144,35.8218398 L48.5565748,39.3967918 C48.6440938,39.5528245 48.7817714,39.6759533 48.9461376,39.7460067 C51.4265277,40.7862233 53.0296,43.1893383 53.0296,45.8673712 C53.0296,49.5293629 50.0358433,52.5088423 46.356888,52.5088423 C42.6747276,52.5088423 39.6799047,49.5283014 39.6799047,45.8673712 C39.6799005,43.0025258 41.5199118,40.4699122 44.2585866,39.5676847 Z" id="Fill-111" fill="#111111" mask="url(#mask-2)"></path>
                <path d="M46.3568837,50.2458382 C48.7817714,50.2458382 50.7562658,48.2821642 50.7562658,45.869493 C50.7562658,43.4578875 48.7817756,41.4942081 46.3568837,41.4942081 C43.9309288,41.4942081 41.9564355,43.4578832 41.9564355,45.869493 C41.9564355,48.28216 43.9309288,50.2458382 46.3568837,50.2458382 Z M46.3568837,43.086378 C47.8991215,43.086378 49.155327,44.3346381 49.155327,45.869493 C49.155327,47.4043437 47.900192,48.6536684 46.3568837,48.6536684 C44.8135798,48.6536684 43.5573743,47.4043437 43.5573743,45.869493 C43.5573743,44.3346423 44.8135798,43.086378 46.3568837,43.086378 Z" id="Fill-112" fill="#111111" mask="url(#mask-2)"></path>
                <path d="M70.1532396,76.0336804 C71.416913,76.0336804 72.4436537,75.0104491 72.4436537,73.7982707 L73.3956766,56.6028364 C73.3956766,54.8249134 71.9420252,53.3792242 70.1532396,53.3792242 C68.3665887,53.3792242 66.91187,54.8249134 66.9140035,56.6463557 L67.8638928,73.7547514 C67.8628266,75.0104491 68.8906347,76.0336804 70.1532396,76.0336804 Z M70.1532396,54.9692765 C71.0583037,54.9692765 71.7947377,55.6995517 71.795805,56.5571984 L70.8437822,73.7526381 C70.8437822,74.1315766 70.5342663,74.4383357 70.1543069,74.4383357 C69.7743476,74.4383357 69.4648317,74.1315766 69.4648317,73.7080573 L68.5138751,56.5996616 C68.5128088,55.6995517 69.2492428,54.9692765 70.1532396,54.9692765 Z" id="Fill-113" fill="#111111" mask="url(#mask-2)"></path>
                <polygon id="Fill-114" fill="#111111" mask="url(#mask-2)" points="45.5564143 56.147479 47.1573532 56.147479 47.1573532 59.1099768 45.5564143 59.1099768"></polygon>
            </g>
            <polygon id="Fill-116" fill="#111111" points="61.2591517 39.0904974 60.1271277 37.9646741 62.2334473 35.8698919 63.3654713 36.9957152"></polygon>
            <polygon id="Fill-118" fill="#111111" points="45.4508974 52.5616933 46.5829214 53.6875166 44.4773561 55.7815487 43.3453321 54.6557254"></polygon>
            <polygon id="Fill-120" fill="#111111" points="45.4540839 39.0888394 43.3465729 36.9949458 44.4781165 35.8684857 46.5856275 37.9623792"></polygon>
            <polygon id="Fill-122" fill="#111111" points="61.2560035 52.5657948 63.3635145 54.6596883 62.2319709 55.7861485 60.1244599 53.692255"></polygon>
            <g id="Group-127" transform="translate(39.000000, 45.000000)" fill="#111111">
                <polygon id="Fill-124" points="24.733102 0.0288273034 27.7140493 0.0288273034 27.7140493 1.62099715 24.733102 1.62099715"></polygon>
                <polygon id="Fill-126" points="0.998651192 0.0288273034 3.97853179 0.0288273034 3.97853179 1.62099715 0.998651192 1.62099715"></polygon>
            </g>
            <polygon id="Fill-128" fill="#111111" points="48.6463483 36.5994378 47.5060582 33.8626821 48.9850056 33.2531993 50.1252957 35.9899551"></polygon>
            <polygon id="Fill-130" fill="#111111" points="58.0645051 55.0555324 59.2049055 57.7935642 57.725798 58.4028877 56.5853976 55.6648558"></polygon>
            <polygon id="Fill-132" fill="#111111" points="58.0671953 36.5949035 56.5871023 35.9853334 57.7267967 33.2482816 59.2068897 33.8578518"></polygon>
            <polygon id="Fill-134" fill="#111111" points="48.6444846 55.057494 50.123432 55.6669767 48.9831419 58.4037325 47.5041945 57.7942498"></polygon>
            <polygon id="Fill-136" fill="#111111" points="43.4617518 42.6081629 40.7090297 41.4761924 41.3211561 40.0038879 44.0738782 41.1358584"></polygon>
            <polygon id="Fill-138" fill="#111111" points="63.2488089 49.0425998 66.0019208 50.1767538 65.3888332 51.6487397 62.6357213 50.5145857"></polygon>
            <polygon id="Fill-140" fill="#111111" points="62.6345469 41.1355467 65.3870629 40.0005038 65.999814 41.4702112 63.247298 42.6052541"></polygon>
            <polygon id="Fill-142" fill="#111111" points="44.0712865 50.5153014 41.3184728 51.650048 40.7058816 50.1801814 43.4586954 49.0454347"></polygon>
            <path d="M12.4913195,79.640479 L16.3634572,79.640479 L16.3634572,87.2712215 C16.3634572,87.7106614 16.722068,88.0673064 17.1639266,88.0673064 L91.1358373,88.0673064 C91.5776985,88.0673064 91.9363067,87.7106614 91.9363067,87.2712215 L91.9363067,10.0127664 C91.9363067,9.57332795 91.5776985,9.21668148 91.1358373,9.21668148 L17.1639256,9.21668148 C16.722067,9.21668148 16.3634562,9.57332795 16.3634562,10.0127664 L16.3634562,17.6445674 L12.4913186,17.6445674 C12.0494599,17.6445674 11.6908491,18.0012145 11.6908491,18.4406523 L11.6908491,28.6857356 C11.6908491,29.1251734 12.0494599,29.4818205 12.4913186,29.4818205 L16.3634562,29.4818205 L16.3634562,67.8021655 L12.4913186,67.8021655 C12.0494599,67.8021655 11.6908491,68.1598708 11.6908491,68.5982504 L11.6908491,78.8433326 C11.6908501,79.283834 12.0494599,79.640479 12.4913195,79.640479 Z M13.2917889,19.2377987 L21.3455781,19.2377987 C22.7832212,19.2377987 23.9529749,20.4011441 23.9529749,21.8309137 L23.9529749,25.2975982 C23.9529749,26.7284282 22.7832212,27.8907132 21.3455781,27.8907132 L13.2917889,27.8907132 L13.2917889,19.2377987 Z M17.9643961,29.4828809 L21.3455781,29.4828809 C23.6658721,29.4828809 25.5539137,27.6051809 25.5539137,25.2975961 L25.5539137,21.8309116 C25.5539137,19.5222653 23.6658721,17.6456267 21.3455781,17.6456267 L17.9643961,17.6456267 L17.9643961,10.8099101 L90.3353679,10.8099101 L90.3353679,86.4783188 L17.9643961,86.4783188 L17.9643961,79.6426008 L21.3455781,79.6426008 C23.6658721,79.6426008 25.5539137,77.764905 25.5539137,75.4583763 L25.5539137,71.9906325 C25.5539137,69.6819831 23.6658721,67.8064091 21.3455781,67.8064091 L17.9643961,67.8064091 L17.9643961,29.4828809 Z M13.2917889,69.3953957 L21.3455781,69.3953957 C22.7832212,69.3953957 23.9529749,70.5587422 23.9529749,71.9885107 L23.9529749,75.4551941 C23.9529749,76.8860241 22.7832212,78.0483091 21.3455781,78.0483091 L13.2917889,78.0483091 L13.2917889,69.3953957 Z" id="Fill-144" fill="#111111"></path>
            <path d="M0.17053718,165.869222 C0.31845964,164.250984 0.823861592,162.632756 1.68674289,161.014517 C2.54962418,159.396279 3.57275469,158.072275 4.75613485,157.042487 C10.0320389,160.22992 15.0367489,161.823631 19.7702677,161.823631 C21.8411822,161.823631 23.3573893,161.357775 24.3188844,160.426068 C25.2803799,159.494362 25.7611284,158.341982 25.7611284,156.968929 C25.7611284,154.664169 24.2079418,152.849786 21.1015705,151.525777 L12.3741428,147.84797 C8.97192499,146.327811 6.35862778,144.501166 4.53425088,142.368039 C2.70987384,140.234912 1.79768531,137.525594 1.79768465,134.240086 C1.79768465,131.984364 2.253779,129.924794 3.16596775,128.06137 C4.07815649,126.197946 5.36015167,124.579713 7.01195301,123.206665 C8.66375435,121.833616 10.6237274,120.767053 12.8918726,120.006973 C15.1600175,119.246894 17.674701,118.866854 20.43592,118.866854 C25.9583598,118.866854 31.5301091,120.26442 37.1511622,123.059552 C36.9046249,126.835432 35.5733202,129.777678 33.1572551,131.886289 C28.1278895,129.483457 23.6902153,128.28204 19.8442307,128.28204 C17.8719309,128.28204 16.3927056,128.723376 15.4065547,129.606049 C14.4204039,130.488722 13.9273294,131.49399 13.9273294,132.621849 C13.9273294,134.534307 15.3819009,136.078986 18.2910423,137.255887 L27.1663925,141.007248 C30.9137605,142.576447 33.711963,144.586979 35.5609942,147.038852 C37.4100254,149.490724 38.334541,152.334895 38.334541,155.571365 C38.334541,157.876126 37.915426,159.984735 37.0771991,161.897191 C36.2389726,163.809643 34.9939566,165.46466 33.3421553,166.86223 C31.6903539,168.2598 29.6317668,169.350884 27.1663907,170.135478 C24.7010163,170.920068 21.8165269,171.312365 18.5129242,171.312372 C12.1029491,171.312372 5.98881969,169.497985 0.170534333,165.869222 L0.17053718,165.869222 Z M73.4661382,155.571365 L54.1622542,155.571365 C54.2608693,157.778051 54.8279065,159.494355 55.8633633,160.720293 C56.8988196,161.946231 58.599932,162.559196 60.9666898,162.559196 C62.1500672,162.559196 63.518354,162.387564 65.0715402,162.044307 C66.6247264,161.701046 68.4121257,161.137117 70.4337344,160.35252 C72.0608856,162.019791 73.0716844,164.275515 73.4661456,167.119684 C69.5215407,169.914817 64.689412,171.31238 58.9697398,171.31238 C55.8633666,171.31238 53.2623976,170.822007 51.1668291,169.841261 C49.0712607,168.860511 47.370152,167.487464 46.0635026,165.722114 C44.7568533,163.956759 43.8323377,161.872675 43.2899558,159.469839 C42.7475739,157.067004 42.4763847,154.443502 42.476381,151.599331 C42.476381,148.853235 42.8092073,146.315549 43.4748597,143.986272 C44.140512,141.656995 45.1513164,139.634201 46.5072697,137.917889 C47.8632228,136.201578 49.5889872,134.853048 51.6845557,133.872301 C53.7801241,132.891553 56.2331743,132.401179 59.0437025,132.401179 C61.4104658,132.401179 63.5430126,132.793478 65.4413501,133.578076 C67.3396839,134.362674 68.9545057,135.441497 70.2858082,136.814547 C71.6171144,138.187597 72.6402425,139.830351 73.3552,141.742808 C74.0701575,143.655266 74.4276344,145.739356 74.4276418,147.995079 C74.4276418,150.986362 74.1071456,153.511789 73.4661456,155.571359 L73.4661382,155.571365 Z M54.0882877,147.6273 L63.8511722,147.6273 L63.8511722,146.818182 C63.8511722,145.003799 63.4443853,143.508157 62.6308153,142.331257 C61.8172415,141.154356 60.5968821,140.565907 58.9697327,140.565907 C57.3918904,140.565907 56.2208376,141.117577 55.4565742,142.22092 C54.6923104,143.324262 54.2362136,145.126387 54.0882877,147.6273 Z M83.5248643,170.209034 L83.5248643,141.522142 L77.1642006,141.5957 C76.8683556,140.369765 76.7204294,139.021236 76.7204294,137.550111 C76.7204294,136.078986 76.8683556,134.705939 77.1642006,133.430968 L82.9331743,133.504526 C82.6866356,131.690143 82.5633681,130.047389 82.5633681,128.576264 C82.5633681,124.898458 83.7590774,121.845878 86.1504849,119.418526 C88.5418962,116.991175 91.660598,115.777499 95.5065866,115.777499 C99.3525752,115.777499 103.124599,116.464022 106.822654,117.83707 C106.871968,119.112044 106.650076,120.497351 106.157003,121.992992 C105.663929,123.488634 105.04758,124.628754 104.307971,125.413352 C101.990518,124.726827 100.092177,124.383565 98.6129516,124.383565 C95.3093504,124.383565 93.657548,126.075355 93.657548,129.458937 C93.657548,130.881021 93.7561642,132.254071 93.953393,133.57808 L103.64232,133.430968 C103.938165,134.705943 104.086091,136.07899 104.086091,137.550111 C104.086091,139.021232 103.938165,140.369762 103.64232,141.5957 L94.7669704,141.448587 L94.7669704,170.209034 C93.0905167,170.503259 91.2414855,170.650374 89.2198768,170.650374 C87.1982681,170.650374 85.2999343,170.503259 83.5248643,170.209034 Z" id="Fill-146" fill="#111111"></path>
            <path d="M9.13315899,187.36542 L11.7264578,195.898123 L11.7749307,195.898123 L14.5136482,187.36542 L16.8161092,187.36542 L19.7244811,195.898123 L19.772954,195.898123 L22.2450705,187.36542 L24.5475315,187.36542 L20.8393573,198.790565 L18.6338419,198.790565 L15.6042874,190.257861 L15.5558146,190.257861 L12.817097,198.790565 L10.4661626,198.790565 L6.68527865,187.36542 L9.13315875,187.36542 L9.13315899,187.36542 Z M37.2619671,187.076175 C38.7161533,187.076175 39.8673828,187.405528 40.7156593,188.064353 C41.5639358,188.723178 42.0123086,189.639167 42.0607827,190.812172 L42.0607827,196.934506 C42.0607827,197.512995 42.0930911,198.131664 42.1577285,198.790491 L40.2188124,198.790491 C40.1703383,198.276286 40.1461043,197.697799 40.1461043,197.055025 L40.0976302,197.055025 C39.5967357,197.794214 39.0191087,198.316491 38.364725,198.621764 C37.71034,198.927036 36.9468922,199.079733 36.0743817,199.079733 C34.8948683,199.079733 33.9375763,198.766385 33.2023652,198.139688 C32.4671541,197.512992 32.0996074,196.685394 32.0996074,195.65701 C32.0996074,194.355411 32.6489759,193.371137 33.7476862,192.704309 C34.8463966,192.037481 36.3974558,191.704006 38.401082,191.704006 L40.0249233,191.704006 L40.0249233,191.294243 C40.0249233,190.522925 39.7704419,189.916356 39.2614767,189.474415 C38.7525116,189.032474 38.0860108,188.811564 37.2619707,188.811564 C36.6479891,188.811564 36.11074,188.903953 35.6502489,189.088755 C35.1897566,189.273557 34.6444368,189.615035 34.0142883,190.113186 L32.7055207,188.76338 C33.9496994,187.670688 35.4684757,187.108301 37.2619707,187.076123 L37.2619671,187.076175 Z M34.2808866,195.48836 C34.2808866,196.725724 35.1049485,197.344343 36.7530032,197.344343 C37.7386263,197.344343 38.5262632,197.051074 39.1160569,196.464559 C39.7058506,195.878044 40.0087576,195.030389 40.0249233,193.921621 L40.0249233,193.294926 L38.788865,193.294926 C37.3670345,193.294926 36.2602776,193.475703 35.4684732,193.837258 C34.6766689,194.198814 34.2808879,194.749172 34.2808879,195.48836 L34.2808866,195.48836 Z M53.7815222,180.568181 L53.7815222,198.790565 L51.6002429,198.790565 L51.6002429,180.568181 L53.7815222,180.568181 Z M65.8173353,180.568181 L65.8173353,198.790565 L63.6360572,198.790565 L63.6360572,180.568181 L65.8173353,180.568181 Z M80.7372856,187.076175 C82.4984274,187.076175 83.8679073,187.62651 84.8453652,188.727277 C85.8228243,189.828043 86.3197864,191.342526 86.3359109,193.270822 L86.3359109,193.873414 L77.1260662,193.873414 C77.1260662,194.805431 77.5017334,195.588752 78.2530617,196.223524 C79.0043888,196.858295 79.9213781,197.183644 81.0038973,197.199722 C82.1995534,197.199722 83.2497642,196.629261 84.1546364,195.48836 L85.8027153,196.74175 C84.5747787,198.300416 82.8781057,199.079809 80.7130625,199.079809 C78.9519218,199.079809 77.5339667,198.521398 76.4595703,197.404603 C75.3851727,196.287809 74.83173,194.845516 74.7993756,193.077992 C74.7993756,191.374706 75.3527674,189.956565 76.4595703,188.823693 C77.566372,187.69082 78.9922779,187.108354 80.7373001,187.076176 L80.7372856,187.076175 Z M84.0092057,192.137948 C83.9769022,191.061308 83.6698968,190.237734 83.0882235,189.66732 C82.5065491,189.096907 81.7067467,188.811639 80.6888163,188.811639 C80.0101949,188.811639 79.400285,188.976339 78.8589678,189.305765 C78.3176494,189.63519 77.8935554,190.06103 77.5865549,190.583259 C77.2795556,191.105488 77.1260614,191.623743 77.1260614,192.137948 L84.0092057,192.137948 Z M98.1778276,184.15963 L98.1777998,187.36542 L101.304302,187.36542 L101.304302,189.245506 L98.1777998,189.245506 L98.1777998,194.741145 C98.1777998,195.480334 98.2828199,196.05082 98.4928759,196.452506 C98.7029331,196.854194 99.1472609,197.055098 99.8258787,197.055098 C100.472192,197.055098 100.989226,196.942608 101.377009,196.717647 L101.377009,198.694148 C100.956923,198.919108 100.294467,199.047652 99.3896216,199.079784 C98.5171087,199.079784 97.842485,198.947212 97.3658816,198.682073 C96.8892781,198.416933 96.5418427,198.047352 96.3237148,197.573303 C96.1055857,197.099255 95.9965266,196.356067 95.9965266,195.343712 L95.9965266,189.245481 L93.4759347,189.245481 L93.4759347,187.365395 L95.9965266,187.365395 L95.9965266,184.159605 L98.1778095,184.159605 L98.1778276,184.15963 Z" id="Fill-148" fill="#111111"></path>
        </g>
    </g>
</svg>